<svg width="2400" height="1526" xmlns="http://www.w3.org/2000/svg" xmlns:xlink="http://www.w3.org/1999/xlink" xml:space="preserve" overflow="hidden"><defs><filter id="fx0" x="-10%" y="-10%" width="120%" height="120%" filterUnits="userSpaceOnUse" primitiveUnits="userSpaceOnUse"><feComponentTransfer color-interpolation-filters="sRGB"><feFuncR type="discrete" tableValues="0 0"/><feFuncG type="discrete" tableValues="0 0"/><feFuncB type="discrete" tableValues="0 0"/><feFuncA type="linear" slope="0.678431" intercept="0"/></feComponentTransfer><feGaussianBlur stdDeviation="7.62947 7.62947"/></filter><filter id="fx1" x="-10%" y="-10%" width="120%" height="120%" filterUnits="userSpaceOnUse" primitiveUnits="userSpaceOnUse"><feComponentTransfer color-interpolation-filters="sRGB"><feFuncR type="discrete" tableValues="0 0"/><feFuncG type="discrete" tableValues="0 0"/><feFuncB type="discrete" tableValues="0 0"/><feFuncA type="linear" slope="0.678431" intercept="0"/></feComponentTransfer><feGaussianBlur stdDeviation="7.62947 7.62947"/></filter><clipPath id="clip2"><rect x="20.5" y="16.5" width="161" height="95"/></clipPath><clipPath id="clip3"><rect x="20.5" y="16.5" width="158" height="87"/></clipPath></defs><g transform="translate(-13 -1848)"><path d="M88.4998 1877C88.4998 1864.02 99.0213 1853.5 112 1853.5L447 1853.5C459.979 1853.5 470.5 1864.02 470.5 1877L470.5 1971C470.5 1983.98 459.979 1994.5 447 1994.5L112 1994.5C99.0213 1994.5 88.4998 1983.98 88.4998 1971Z" stroke="#800000" stroke-width="6.875" stroke-miterlimit="8" fill="#FFC9C9" fill-rule="evenodd"/><text fill="#262626" font-family="Aptos,Aptos_MSFontService,sans-serif" font-weight="700" font-size="50" transform="matrix(1 0 0 1 146.074 1910)">GEO </text><text fill="#262626" font-family="Aptos,Aptos_MSFontService,sans-serif" font-weight="700" font-size="50" transform="matrix(1 0 0 1 258.365 1910)">scRNA</text><text fill="#262626" font-family="Aptos,Aptos_MSFontService,sans-serif" font-weight="700" font-size="50" transform="matrix(1 0 0 1 227.13 1970)">data </text><path d="M16.5 2123C16.5 2110.02 27.0214 2099.5 40.0003 2099.5L519 2099.5C531.979 2099.5 542.5 2110.02 542.5 2123L542.5 2217C542.5 2229.98 531.979 2240.5 519 2240.5L40.0003 2240.5C27.0214 2240.5 16.5 2229.98 16.5 2217Z" stroke="#800000" stroke-width="6.875" stroke-miterlimit="8" fill="#FFC9C9" fill-rule="evenodd"/><text fill="#262626" font-family="Aptos,Aptos_MSFontService,sans-serif" font-weight="700" font-size="50" transform="matrix(1 0 0 1 73.3133 2156)">SingleR+Monaco+</text><text fill="#262626" font-family="Aptos,Aptos_MSFontService,sans-serif" font-weight="700" font-size="50" transform="matrix(1 0 0 1 221.699 2216)">DICE</text><path d="M285.875 1994 285.875 2063.86 272.125 2063.86 272.125 1994ZM299.625 2056.99 279 2098.24 258.375 2056.99Z"/><path d="M982.237 2096 784 2386.22 897.451 2532 1182 2473.25ZM986.352 2162.01 1138.99 2450.25 919.405 2495.61ZM954.982 2185.21 895.171 2483.22 818.621 2384.86Z" fill="#D86ECC" fill-rule="evenodd"/><g clip-path="url(#clip2)" filter="url(#fx0)" transform="matrix(2 0 0 2 781 2152)"><g><path d="M5.73877 0 5.73877-47.9775 22.1353-47.9775C27.3156-47.9775 31.4147-46.9973 34.4326-45.0369 37.4505-43.0764 38.9595-40.0644 38.9595-36.001 38.9595-33.4583 38.3238-31.3018 37.0525-29.5315 35.7812-27.7611 34.088-26.4839 31.9731-25.6997 35.3-25.0343 37.8367-23.6798 39.5832-21.6362 41.3298-19.5926 42.2031-17.0737 42.2031-14.0796 42.2031-10.8716 41.4724-8.22795 40.011-6.14868 38.5496-4.06942 36.4584-2.52482 33.7375-1.51489 31.0167-0.504964 27.7552 0 23.9531 0ZM15.7549-8.30517 23.5967-8.30517C25.165-8.30517 26.5908-8.50122 27.874-8.89331 29.1572-9.2854 30.1731-9.97453 30.9216-10.9607 31.6702-11.9469 32.0444-13.2716 32.0444-14.9351 32.0444-17.0737 31.2484-18.6005 29.6562-19.5154 28.0641-20.4303 26.0443-20.8877 23.5967-20.8877L15.7549-20.8877ZM15.7549-28.5513 21.9927-28.5513C23.9175-28.5513 25.5334-29.0503 26.8403-30.0483 28.1473-31.0464 28.8008-32.5078 28.8008-34.4326 28.8008-35.7871 28.5037-36.8624 27.9097-37.6584 27.3156-38.4545 26.5076-39.0248 25.4858-39.3694 24.464-39.7139 23.2996-39.8862 21.9927-39.8862L15.7549-39.8862ZM59.8034 0.605957C57.831 0.605957 55.9894 0.225749 54.2785-0.534668 52.5675-1.29508 51.1833-2.44165 50.1259-3.97436 49.0684-5.50708 48.5397-7.42594 48.5397-9.73096 48.5397-12.939 49.5021-15.3568 51.4269-16.9846 53.3517-18.6124 56.0429-19.7174 59.5004-20.2996 62.9579-20.8818 66.9798-21.2204 71.5661-21.3154L71.5661-23.1689C71.5661-25.4264 71.0255-26.971 69.9443-27.8027 68.863-28.6344 67.467-29.0503 65.756-29.0503 63.8787-29.0503 62.3341-28.6047 61.1222-27.7136 59.9103-26.8225 59.3044-25.3789 59.3044-23.3828L50.4645-23.3828C50.4645-26.3532 51.1121-28.7057 52.4071-30.4404 53.7022-32.1751 55.4963-33.4227 57.7895-34.1831 60.0826-34.9435 62.7381-35.3237 65.756-35.3237 67.966-35.3237 69.9858-35.1396 71.8156-34.7712 73.6453-34.4029 75.2315-33.7673 76.5741-32.8643 77.9167-31.9613 78.9564-30.7315 79.693-29.175 80.4297-27.6186 80.798-25.6759 80.798-23.3472L80.798 0 71.9582 0 71.673-4.52685C70.1997-2.83968 68.4888-1.56242 66.5402-0.695068 64.5916 0.172282 62.346 0.605957 59.8034 0.605957ZM62.9045-5.88135C64.6867-5.88135 66.3323-6.34473 67.8412-7.27148 69.3502-8.19824 70.5561-9.2557 71.4591-10.4438L71.4591-16.0757C66.4689-16.0519 62.9757-15.5826 60.9797-14.6677 58.9836-13.7528 57.9855-12.2736 57.9855-10.23 57.9855-8.75667 58.4429-7.66357 59.3578-6.95068 60.2727-6.23779 61.4549-5.88135 62.9045-5.88135ZM89.7489 12.7607 89.7489 5.09717 92.8856 5.09717C94.2876 5.09717 95.4579 4.84766 96.3966 4.34863 97.3352 3.84961 98.0184 3.02978 98.4462 1.88916L99.2303 0 85.6854-34.7891 95.5233-34.7891 104.327-9.05371 112.169-34.7891 121.722-34.7891 109.211 0 107.928 3.45752C107.025 5.90511 105.979 7.80615 104.791 9.16064 103.603 10.5151 102.147 11.4538 100.424 11.9766 98.7016 12.4993 96.557 12.7607 93.9906 12.7607ZM142.135 0.641602C138.261 0.641602 135.006-0.0772299 132.368-1.51489 129.73-2.95255 127.734-5.02588 126.38-7.73486 125.025-10.4438 124.348-13.6994 124.348-17.5015 124.348-21.1847 125.007-24.3571 126.326-27.0186 127.645-29.68 129.582-31.7296 132.136-33.1672 134.691-34.6049 137.834-35.3237 141.564-35.3237 146.745-35.3237 150.838-33.8088 153.844-30.779 156.85-27.7493 158.353-23.4303 158.353-17.8223 158.353-17.5371 158.341-17.151 158.317-16.6638 158.294-16.1767 158.258-15.8024 158.21-15.541L133.794-15.541C133.841-13.9014 134.144-12.3687 134.703-10.9429 135.261-9.51709 136.146-8.37052 137.358-7.50317 138.57-6.63582 140.162-6.20215 142.135-6.20215 144.178-6.20215 145.818-6.6477 147.054-7.53882 148.289-8.42993 148.919-9.75472 148.943-11.5132L158.246-11.5132C158.127-8.8042 157.385-6.54671 156.018-4.74072 154.652-2.93473 152.786-1.58618 150.422-0.695068 148.058 0.196045 145.295 0.641602 142.135 0.641602ZM133.901-21.5293 148.978-21.5293C148.907-23.9531 148.188-25.7651 146.822-26.9651 145.456-28.1651 143.703-28.7651 141.564-28.7651 139.378-28.7651 137.59-28.1473 136.2-26.9116 134.81-25.6759 134.043-23.8818 133.901-21.5293ZM180.78 0.641602C178.855 0.641602 176.966 0.463379 175.113 0.106934 173.259-0.249512 171.584-0.861409 170.087-1.72876 168.59-2.59611 167.401-3.77832 166.522-5.27539 165.643-6.77246 165.203-8.63786 165.203-10.8716L173.972-10.8716C173.972-8.92301 174.655-7.56852 176.021-6.8081 177.388-6.04769 178.986-5.66748 180.816-5.66748 182.622-5.66748 184.024-5.95858 185.022-6.54077 186.02-7.12296 186.519-8.10319 186.519-9.48144 186.519-10.7884 185.931-11.7627 184.754-12.4043 183.578-13.0459 181.517-13.6994 178.57-14.3647 176.099-14.9588 173.895-15.6777 171.958-16.5212 170.021-17.3648 168.506-18.4936 167.413-19.9075 166.32-21.3214 165.774-23.1808 165.774-25.4858 165.774-27.2918 166.189-28.8245 167.021-30.084 167.853-31.3434 168.964-32.3593 170.354-33.1316 171.744-33.9039 173.312-34.4683 175.059-34.8247 176.806-35.1811 178.594-35.3594 180.424-35.3594 182.206-35.3594 183.952-35.1811 185.663-34.8247 187.374-34.4683 188.919-33.8682 190.297-33.0247 191.675-32.1811 192.78-31.0464 193.612-29.6206 194.444-28.1948 194.86-26.4126 194.86-24.2739L186.091-24.2739C186.091-26.0562 185.527-27.2918 184.398-27.981 183.269-28.6701 181.944-29.0146 180.424-29.0146 178.784-29.0146 177.495-28.777 176.556-28.3018 175.617-27.8265 175.148-27.0423 175.148-25.9492 175.148-25.3076 175.445-24.7432 176.039-24.2561 176.633-23.769 177.584-23.3175 178.891-22.9016 180.198-22.4858 181.921-22.0402 184.059-21.5649 186.317-21.0422 188.337-20.3649 190.119-19.5332 191.901-18.7015 193.315-17.5846 194.361-16.1826 195.406-14.7806 195.929-12.9627 195.929-10.729 195.929-8.63786 195.507-6.86751 194.664-5.41797 193.82-3.96842 192.691-2.7981 191.277-1.90698 189.863-1.01587 188.248-0.368327 186.43 0.0356445 184.612 0.439616 182.729 0.641602 180.78 0.641602Z" transform="matrix(0.54 0 0 0.54 47.11 72)"/></g></g><text font-family="Aptos,Aptos_MSFontService,sans-serif" font-weight="700" font-size="73" transform="matrix(1 0 0 1 883.202 2294)">Bayes </text><g clip-path="url(#clip3)" filter="url(#fx1)" transform="matrix(2 0 0 2 784 2240)"><g><path d="M5.73877 0 5.73877-47.9775 24.5591-47.9775C27.7196-47.9775 30.6008-47.4191 33.2029-46.3022 35.8049-45.1854 37.8783-43.4863 39.4228-41.2051 40.9674-38.9238 41.7397-36.0129 41.7397-32.4722 41.7397-28.979 40.9674-26.0918 39.4228-23.8105 37.8783-21.5293 35.8049-19.8362 33.2029-18.7312 30.6008-17.6262 27.7196-17.0737 24.5591-17.0737L15.7549-17.0737 15.7549 0ZM15.7549-25.1294 23.6323-25.1294C25.9611-25.1294 27.8443-25.7472 29.282-26.9829 30.7196-28.2186 31.4385-30.0483 31.4385-32.4722 31.4385-34.991 30.7018-36.8564 29.2285-38.0684 27.7552-39.2803 25.8898-39.8862 23.6323-39.8862L15.7549-39.8862ZM49.0386 0 49.0386-34.7891 58.0923-34.7891 58.2705-28.7651C59.1735-30.8563 60.528-32.4603 62.334-33.5771 64.14-34.694 66.3262-35.2524 68.8926-35.2524L69.6055-35.2524 69.6055-27.3037 68.7144-27.3037C67.3124-27.3037 65.9698-27.179 64.6866-26.9294 63.4034-26.6799 62.239-26.2522 61.1934-25.6462 60.1478-25.0403 59.2448-24.2026 58.4844-23.1333L58.4844 0ZM75.9657 0 75.9657-34.7891 85.4115-34.7891 85.4115 0ZM80.7064-39.3516C78.9717-39.3516 77.6469-39.7912 76.732-40.6704 75.8172-41.5496 75.3597-42.6427 75.3597-43.9497 75.3597-45.2804 75.8172-46.3795 76.732-47.2468 77.6469-48.1142 78.9717-48.5478 80.7064-48.5478 82.4411-48.5478 83.7659-48.1142 84.6808-47.2468 85.5956-46.3795 86.0531-45.2804 86.0531-43.9497 86.0531-42.6427 85.5956-41.5496 84.6808-40.6704 83.7659-39.7912 82.4411-39.3516 80.7064-39.3516ZM109.418 0.641602C107.493 0.641602 105.604 0.463379 103.75 0.106934 101.897-0.249512 100.221-0.861409 98.7241-1.72876 97.2271-2.59611 96.0389-3.77832 95.1597-5.27539 94.2805-6.77246 93.8408-8.63786 93.8408-10.8716L102.609-10.8716C102.609-8.92301 103.293-7.56852 104.659-6.8081 106.025-6.04769 107.623-5.66748 109.453-5.66748 111.259-5.66748 112.661-5.95858 113.659-6.54077 114.657-7.12296 115.156-8.10319 115.156-9.48144 115.156-10.7884 114.568-11.7627 113.392-12.4043 112.216-13.0459 110.154-13.6994 107.208-14.3647 104.736-14.9588 102.532-15.6777 100.595-16.5212 98.6588-17.3648 97.1439-18.4936 96.0508-19.9075 94.9577-21.3214 94.4111-23.1808 94.4112-25.4858 94.4111-27.2918 94.827-28.8245 95.6587-30.084 96.4904-31.3434 97.6013-32.3593 98.9915-33.1316 100.382-33.9039 101.95-34.4683 103.697-34.8247 105.443-35.1811 107.231-35.3594 109.061-35.3594 110.843-35.3594 112.59-35.1811 114.301-34.8247 116.012-34.4683 117.556-33.8682 118.935-33.0247 120.313-32.1811 121.418-31.0464 122.25-29.6206 123.081-28.1948 123.497-26.4126 123.497-24.2739L114.729-24.2739C114.729-26.0562 114.164-27.2918 113.035-27.981 111.907-28.6701 110.582-29.0146 109.061-29.0146 107.421-29.0146 106.132-28.777 105.194-28.3018 104.255-27.8265 103.786-27.0423 103.786-25.9492 103.786-25.3076 104.083-24.7432 104.677-24.2561 105.271-23.769 106.221-23.3175 107.528-22.9016 108.835-22.4858 110.558-22.0402 112.697-21.5649 114.954-21.0422 116.974-20.3649 118.756-19.5332 120.539-18.7015 121.952-17.5846 122.998-16.1826 124.044-14.7806 124.566-12.9627 124.566-10.729 124.566-8.63786 124.145-6.86751 123.301-5.41797 122.457-3.96842 121.329-2.7981 119.915-1.90698 118.501-1.01587 116.885-0.368327 115.067 0.0356445 113.249 0.439616 111.366 0.641602 109.418 0.641602ZM133.257 0 133.257-34.7891 142.347-34.7891 142.525-29.585C143.666-31.082 145.24-32.4068 147.248-33.5593 149.256-34.7118 151.733-35.2881 154.68-35.2881 158.173-35.2881 160.852-34.189 162.718-31.991 164.583-29.7929 165.516-26.674 165.516-22.6343L165.516 0 156.07 0 156.07-21.4224C156.07-22.6818 155.898-23.7868 155.553-24.7373 155.208-25.6878 154.65-26.4245 153.878-26.9473 153.105-27.47 152.101-27.7314 150.866-27.7314 149.036-27.7314 147.468-27.2918 146.161-26.4126 144.854-25.5334 143.701-24.464 142.703-23.2046L142.703 0ZM178.918 0 178.918-21.4224C178.918-22.6818 178.746-23.7868 178.401-24.7373 178.057-25.6878 177.498-26.4245 176.726-26.9473 175.954-27.47 174.95-27.7314 173.714-27.7314 171.884-27.7314 170.31-27.3275 168.991-26.5195 167.672-25.7116 166.49-24.7017 165.444-23.4897L164.304-29.3354C165.801-30.9276 167.636-32.3177 169.811-33.5059 171.985-34.694 174.546-35.2881 177.492-35.2881 180.962-35.2881 183.641-34.189 185.53-31.991 187.419-29.7929 188.364-26.674 188.364-22.6343L188.364 0Z" transform="matrix(0.54 0 0 0.54 47.2435 72)"/></g></g><text font-family="Aptos,Aptos_MSFontService,sans-serif" font-weight="700" font-size="73" transform="matrix(1 0 0 1 886.227 2382)">Prism</text><path d="M1028.35 2369.4 1032.53 2362.61 1049.26 2372.88 1045.09 2379.68Z" fill="#D86ECC" fill-rule="evenodd"/><path d="M978.262 2257.75 986.152 2256.62 988.922 2276.07 981.031 2277.19Z" fill="#D86ECC" fill-rule="evenodd"/><path d="M881.799 2350.17 897.601 2348.07 898.895 2357.81 883.094 2359.91Z" fill="#D86ECC" fill-rule="evenodd"/><path d="M16.5 2360.17C16.5 2344.89 28.8871 2332.5 44.1673 2332.5L514.833 2332.5C530.113 2332.5 542.5 2344.89 542.5 2360.17L542.5 2470.83C542.5 2486.11 530.113 2498.5 514.833 2498.5L44.1673 2498.5C28.8871 2498.5 16.5 2486.11 16.5 2470.83Z" stroke="#0B3041" stroke-width="6.875" stroke-miterlimit="8" fill="#C1E5F5" fill-rule="evenodd"/><text fill="#262626" font-family="Aptos,Aptos_MSFontService,sans-serif" font-weight="700" font-size="50" transform="matrix(1 0 0 1 89.0571 2401)">CPTAC bulk RNA </text><text fill="#262626" font-family="Aptos,Aptos_MSFontService,sans-serif" font-weight="700" font-size="50" transform="matrix(1 0 0 1 85.9175 2461)">sequencing Data</text><path d="M601 2281.12 792.705 2281.13 792.705 2294.88 601 2294.88ZM785.83 2267.38 827.08 2288 785.83 2308.63Z"/><path d="M1291.5 2121.83C1291.5 2109.5 1301.5 2099.5 1313.83 2099.5L1795.17 2099.5C1807.5 2099.5 1817.5 2109.5 1817.5 2121.83L1817.5 2211.17C1817.5 2223.5 1807.5 2233.5 1795.17 2233.5L1313.83 2233.5C1301.5 2233.5 1291.5 2223.5 1291.5 2211.17Z" stroke="#275317" stroke-width="6.875" stroke-miterlimit="8" fill="#D9F2D0" fill-rule="evenodd"/><text fill="#262626" font-family="Aptos,Aptos_MSFontService,sans-serif" font-weight="700" font-size="50" transform="matrix(1 0 0 1 1386.4 2183)">Deconvolution</text><path d="M1296.5 2368.33C1296.5 2352.96 1308.96 2340.5 1324.33 2340.5L1794.67 2340.5C1810.04 2340.5 1822.5 2352.96 1822.5 2368.33L1822.5 2479.67C1822.5 2495.04 1810.04 2507.5 1794.67 2507.5L1324.33 2507.5C1308.96 2507.5 1296.5 2495.04 1296.5 2479.67Z" stroke="#50164A" stroke-width="6.875" stroke-miterlimit="8" fill="#F2CFEE" fill-rule="evenodd"/><text fill="#262626" font-family="Aptos,Aptos_MSFontService,sans-serif" font-weight="700" font-size="50" transform="matrix(1 0 0 1 1353.9 2410)">Cell</text><text fill="#262626" font-family="Aptos,Aptos_MSFontService,sans-serif" font-weight="700" font-size="50" transform="matrix(1 0 0 1 1447.29 2410)">-</text><text fill="#262626" font-family="Aptos,Aptos_MSFontService,sans-serif" font-weight="700" font-size="50" transform="matrix(1 0 0 1 1464.47 2410)">type</text><text fill="#262626" font-family="Aptos,Aptos_MSFontService,sans-serif" font-weight="700" font-size="50" transform="matrix(1 0 0 1 1564.73 2410)">-</text><text fill="#262626" font-family="Aptos,Aptos_MSFontService,sans-serif" font-weight="700" font-size="50" transform="matrix(1 0 0 1 1581.92 2410)">specific </text><text fill="#262626" font-family="Aptos,Aptos_MSFontService,sans-serif" font-weight="700" font-size="50" transform="matrix(1 0 0 1 1432.96 2470)">expression</text><path d="M542 2158C574.585 2158 601 2158 601 2158L601 2428C601 2428 574.585 2428 542 2428" stroke="#000000" stroke-width="13.75" stroke-miterlimit="8" fill="none" fill-rule="evenodd"/><path d="M1936.5 2372.33C1936.5 2356.96 1948.96 2344.5 1964.33 2344.5L2257.67 2344.5C2273.04 2344.5 2285.5 2356.96 2285.5 2372.33L2285.5 2483.67C2285.5 2499.04 2273.04 2511.5 2257.67 2511.5L1964.33 2511.5C1948.96 2511.5 1936.5 2499.04 1936.5 2483.67Z" stroke="#50164A" stroke-width="6.875" stroke-miterlimit="8" fill="#F2CFEE" fill-rule="evenodd"/><text fill="#262626" font-family="Aptos,Aptos_MSFontService,sans-serif" font-weight="700" font-size="50" transform="matrix(1 0 0 1 2027.36 2414)">Z score </text><text fill="#262626" font-family="Aptos,Aptos_MSFontService,sans-serif" font-weight="700" font-size="50" transform="matrix(1 0 0 1 2036.53 2474)">matrix</text><path d="M1817.05 2421.13 1901.31 2421.76 1901.21 2435.51 1816.95 2434.87ZM1894.54 2407.96 1935.63 2428.9 1894.23 2449.21Z"/><path d="M1067 2307.13 1170.19 2307.13 1170.19 2320.88 1067 2320.88ZM1163.32 2293.38 1204.57 2314 1163.32 2334.63Z"/><path d="M0 0C47.4967 -1.31129e-19 86.0003 0.000396598 86.0003 0.000885826L86.0003 269.999C86.0003 269.999 47.4967 270-1.71873e-14 270" stroke="#000000" stroke-width="13.75" stroke-miterlimit="8" fill="none" fill-rule="evenodd" transform="matrix(-1 0 0 1 1291 2156)"/><path d="M1847.5 2635.17C1847.5 2619.89 1859.89 2607.5 1875.17 2607.5L2345.83 2607.5C2361.11 2607.5 2373.5 2619.89 2373.5 2635.17L2373.5 2745.83C2373.5 2761.11 2361.11 2773.5 2345.83 2773.5L1875.17 2773.5C1859.89 2773.5 1847.5 2761.11 1847.5 2745.83Z" stroke="#50164A" stroke-width="6.875" stroke-miterlimit="8" fill="#F2CFEE" fill-rule="evenodd"/><text fill="#262626" font-family="Aptos,Aptos_MSFontService,sans-serif" font-weight="700" font-size="50" transform="matrix(1 0 0 1 1895.59 2707)">Stabl</text><text fill="#262626" font-family="Aptos,Aptos_MSFontService,sans-serif" font-weight="700" font-size="50" transform="matrix(1 0 0 1 2026.79 2707)">ML algorithm</text><path d="M2116.88 2511 2116.88 2572.38 2103.13 2572.38 2103.12 2511ZM2130.63 2565.51 2110 2606.76 2089.38 2565.51Z"/><path d="M1912.5 1935.33C1912.5 1919.96 1924.96 1907.5 1940.33 1907.5L2281.67 1907.5C2297.04 1907.5 2309.5 1919.96 2309.5 1935.33L2309.5 2046.67C2309.5 2062.04 2297.04 2074.5 2281.67 2074.5L1940.33 2074.5C1924.96 2074.5 1912.5 2062.04 1912.5 2046.67Z" stroke="#50164A" stroke-width="6.875" stroke-miterlimit="8" fill="#F2CFEE" fill-rule="evenodd"/><text fill="#262626" font-family="Aptos,Aptos_MSFontService,sans-serif" font-weight="700" font-size="50" transform="matrix(1 0 0 1 1958.9 1977)">Custom gene </text><text fill="#262626" font-family="Aptos,Aptos_MSFontService,sans-serif" font-weight="700" font-size="50" transform="matrix(1 0 0 1 2002.44 2037)">signature</text><path d="M2116.88 2074 2116.88 2310.13 2103.13 2310.13 2103.12 2074ZM2130.63 2303.26 2110 2344.51 2089.38 2303.26Z"/><path d="M469.875 2498 469.875 2575.03 456.125 2575.03 456.125 2498ZM483.625 2568.15 463 2609.4 442.375 2568.15Z"/><path d="M422.5 2630.83C422.5 2620.71 430.708 2612.5 440.834 2612.5L727.166 2612.5C737.292 2612.5 745.5 2620.71 745.5 2630.83L745.5 2704.17C745.5 2714.29 737.292 2722.5 727.166 2722.5L440.834 2722.5C430.708 2722.5 422.5 2714.29 422.5 2704.17Z" stroke="#50164A" stroke-width="6.875" stroke-miterlimit="8" fill="#F2CFEE" fill-rule="evenodd"/><text fill="#262626" font-family="Aptos,Aptos_MSFontService,sans-serif" font-weight="700" font-size="50" transform="matrix(1 0 0 1 494.277 2684)">DESeq2</text><path d="M375.875 2502 375.875 2738.87 362.125 2738.87 362.125 2502ZM389.625 2732 369 2773.25 348.375 2732Z"/><path d="M336.5 2797.33C336.5 2783.62 347.618 2772.5 361.334 2772.5L646.666 2772.5C660.381 2772.5 671.5 2783.62 671.5 2797.33L671.5 2896.67C671.5 2910.38 660.381 2921.5 646.666 2921.5L361.334 2921.5C347.618 2921.5 336.5 2910.38 336.5 2896.67Z" stroke="#50164A" stroke-width="6.875" stroke-miterlimit="8" fill="#F2CFEE" fill-rule="evenodd"/><text fill="#262626" font-family="Aptos,Aptos_MSFontService,sans-serif" font-weight="700" font-size="50" transform="matrix(1 0 0 1 421.308 2833)">TimiGP</text><text fill="#262626" font-family="Aptos,Aptos_MSFontService,sans-serif" font-weight="700" font-size="50" transform="matrix(1 0 0 1 408.131 2893)">analysis</text><path d="M2116.88 2773 2116.88 2850.03 2103.13 2850.03 2103.12 2773ZM2130.63 2843.15 2110 2884.4 2089.38 2843.15Z"/><path d="M1852.5 2906.17C1852.5 2890.89 1864.89 2878.5 1880.17 2878.5L2350.83 2878.5C2366.11 2878.5 2378.5 2890.89 2378.5 2906.17L2378.5 3016.83C2378.5 3032.11 2366.11 3044.5 2350.83 3044.5L1880.17 3044.5C1864.89 3044.5 1852.5 3032.11 1852.5 3016.83Z" stroke="#50164A" stroke-width="6.875" stroke-miterlimit="8" fill="#F2CFEE" fill-rule="evenodd"/><text fill="#262626" font-family="Aptos,Aptos_MSFontService,sans-serif" font-weight="700" font-size="50" transform="matrix(1 0 0 1 2011.13 2947)">Bayesian </text><text fill="#262626" font-family="Aptos,Aptos_MSFontService,sans-serif" font-weight="700" font-size="50" transform="matrix(1 0 0 1 2002.24 3007)">Modelling</text><path d="M2406 3044C2406 3087.63 2365.12 3123 2314.7 3123L1353.41 3123C1302.98 3123 1262.11 3158.37 1262.11 3202 1262.11 3158.37 1221.23 3123 1170.81 3123L160.3 3123C109.877 3123 69.0002 3087.63 69.0002 3044" stroke="#000000" stroke-width="13.75" stroke-miterlimit="8" fill="none" fill-rule="evenodd"/><path d="M991.5 3232.17C991.5 3216.89 1003.89 3204.5 1019.17 3204.5L1488.83 3204.5C1504.11 3204.5 1516.5 3216.89 1516.5 3232.17L1516.5 3342.83C1516.5 3358.11 1504.11 3370.5 1488.83 3370.5L1019.17 3370.5C1003.89 3370.5 991.5 3358.11 991.5 3342.83Z" stroke="#50164A" stroke-width="6.875" stroke-miterlimit="8" fill="#F2CFEE" fill-rule="evenodd"/><text fill="#262626" font-family="Aptos,Aptos_MSFontService,sans-serif" font-weight="700" font-size="50" transform="matrix(1 0 0 1 1080.51 3304)">Interactive app</text></g></svg>