<svg width="1280" height="720" xmlns="http://www.w3.org/2000/svg" xmlns:xlink="http://www.w3.org/1999/xlink" overflow="hidden"><defs><filter id="fx0" x="-10%" y="-10%" width="120%" height="120%" filterUnits="userSpaceOnUse" primitiveUnits="userSpaceOnUse"><feComponentTransfer color-interpolation-filters="sRGB"><feFuncR type="discrete" tableValues="0 0"/><feFuncG type="discrete" tableValues="0 0"/><feFuncB type="discrete" tableValues="0 0"/><feFuncA type="linear" slope="0.678431" intercept="0"/></feComponentTransfer><feGaussianBlur stdDeviation="5.8987 5.8987"/></filter><filter id="fx1" x="-10%" y="-10%" width="120%" height="120%" filterUnits="userSpaceOnUse" primitiveUnits="userSpaceOnUse"><feComponentTransfer color-interpolation-filters="sRGB"><feFuncR type="discrete" tableValues="0 0"/><feFuncG type="discrete" tableValues="0 0"/><feFuncB type="discrete" tableValues="0 0"/><feFuncA type="linear" slope="0.678431" intercept="0"/></feComponentTransfer><feGaussianBlur stdDeviation="5.8987 5.8987"/></filter><clipPath id="clip2"><rect x="18" y="14" width="138" height="75"/></clipPath><clipPath id="clip3"><rect x="21" y="14" width="132" height="68"/></clipPath></defs><g><rect x="0" y="0" width="1280" height="720" fill="#FFFFFF"/><rect x="0" y="0" width="1280" height="720" fill="#FFFFFF"/><path d="M103 43.3336C103 39.2833 106.283 36 110.334 36L297.666 36C301.717 36 305 39.2833 305 43.3336L305 72.6664C305 76.7167 301.717 80 297.666 80L110.334 80C106.283 80 103 76.7167 103 72.6664Z" stroke="#800000" stroke-width="2" stroke-miterlimit="8" fill="#FFC9C9" fill-rule="evenodd"/><text fill="#262626" font-family="Aptos,Aptos_MSFontService,sans-serif" font-weight="700" font-size="21.3333" transform="translate(123.551 65)">GEO</text><text fill="#262626" font-family="Aptos,Aptos_MSFontService,sans-serif" font-weight="700" font-size="21.3333" transform="translate(170.845 65)">scRNA</text><text fill="#262626" font-family="Aptos,Aptos_MSFontService,sans-serif" font-weight="700" font-size="21.3333" transform="translate(240.011 65)">data</text><path d="M77 141.5C77 137.358 80.358 134 84.5002 134L321.5 134C325.642 134 329 137.358 329 141.5L329 171.5C329 175.642 325.642 179 321.5 179L84.5002 179C80.358 179 77 175.642 77 171.5Z" stroke="#800000" stroke-width="2" stroke-miterlimit="8" fill="#FFC9C9" fill-rule="evenodd"/><text fill="#262626" font-family="Aptos,Aptos_MSFontService,sans-serif" font-weight="700" font-size="21.3333" transform="translate(92.0881 164)">SingleR+Monaco+DICE</text><path d="M1.99996-0.0134191 2.29254 43.5935-1.70737 43.6203-1.99996 0.0134191ZM6.27904 41.5667 0.359685 53.6067-5.7207 41.6472Z" transform="matrix(-1 0 0 1 203.36 80)"/><path d="M539.635 128 445 262.459 499.16 330 635 302.78ZM541.6 158.583 614.469 292.125 509.641 313.142ZM526.624 169.33 498.071 307.402 461.527 261.831Z" fill="#D86ECC" fill-rule="evenodd"/><g clip-path="url(#clip2)" filter="url(#fx0)" transform="translate(454 160)"><g><path d="M2.51562 0 2.51562-21.0312 9.70312-21.0312C11.974-21.0312 13.7708-20.6016 15.0938-19.7422 16.4167-18.8828 17.0781-17.5625 17.0781-15.7812 17.0781-14.6667 16.7995-13.7214 16.2422-12.9453 15.6849-12.1693 14.9427-11.6094 14.0156-11.2656 15.474-10.974 16.5859-10.3802 17.3516-9.48438 18.1172-8.58854 18.5-7.48438 18.5-6.17188 18.5-4.76562 18.1797-3.60677 17.5391-2.69531 16.8984-1.78385 15.9818-1.10677 14.7891-0.664062 13.5964-0.221354 12.1667 0 10.5 0ZM6.90625-3.64062 10.3438-3.64062C11.0312-3.64062 11.6562-3.72656 12.2188-3.89844 12.7812-4.07031 13.2266-4.3724 13.5547-4.80469 13.8828-5.23698 14.0469-5.81771 14.0469-6.54688 14.0469-7.48438 13.6979-8.15365 13-8.55469 12.3021-8.95573 11.4167-9.15625 10.3438-9.15625L6.90625-9.15625ZM6.90625-12.5156 9.64062-12.5156C10.4844-12.5156 11.1927-12.7344 11.7656-13.1719 12.3385-13.6094 12.625-14.25 12.625-15.0938 12.625-15.6875 12.4948-16.1589 12.2344-16.5078 11.974-16.8568 11.6198-17.1068 11.1719-17.2578 10.724-17.4089 10.2135-17.4844 9.64062-17.4844L6.90625-17.4844ZM26.2083 0.265625C25.3438 0.265625 24.5365 0.0989583 23.7865-0.234375 23.0365-0.567708 22.4297-1.07031 21.9661-1.74219 21.5026-2.41406 21.2708-3.25521 21.2708-4.26562 21.2708-5.67187 21.6927-6.73177 22.5365-7.44531 23.3802-8.15885 24.5599-8.64323 26.0755-8.89844 27.5911-9.15365 29.3542-9.30208 31.3646-9.34375L31.3646-10.1562C31.3646-11.1458 31.1276-11.8229 30.6536-12.1875 30.1797-12.5521 29.5677-12.7344 28.8177-12.7344 27.9948-12.7344 27.3177-12.5391 26.7865-12.1484 26.2552-11.7578 25.9896-11.125 25.9896-10.25L22.1146-10.25C22.1146-11.5521 22.3984-12.5833 22.9661-13.3438 23.5339-14.1042 24.3203-14.651 25.3255-14.9844 26.3307-15.3177 27.4948-15.4844 28.8177-15.4844 29.7865-15.4844 30.6719-15.4036 31.474-15.2422 32.276-15.0807 32.9714-14.8021 33.5599-14.4062 34.1484-14.0104 34.6042-13.4714 34.9271-12.7891 35.25-12.1068 35.4115-11.2552 35.4115-10.2344L35.4115 0 31.5365 0 31.4115-1.98438C30.7656-1.24479 30.0156-0.684896 29.1615-0.304688 28.3073 0.0755208 27.3229 0.265625 26.2083 0.265625ZM27.5677-2.57812C28.349-2.57812 29.0703-2.78125 29.7318-3.1875 30.3932-3.59375 30.9219-4.05729 31.3177-4.57812L31.3177-7.04688C29.1302-7.03646 27.599-6.83073 26.724-6.42969 25.849-6.02865 25.4115-5.38021 25.4115-4.48438 25.4115-3.83854 25.612-3.35937 26.013-3.04688 26.4141-2.73438 26.9323-2.57812 27.5677-2.57812ZM39.1746 5.59375 39.1746 2.23438 40.5496 2.23438C41.1642 2.23438 41.6772 2.125 42.0886 1.90625 42.5001 1.6875 42.7996 1.32812 42.9871 0.828125L43.3308 0 37.3933-15.25 41.7058-15.25 45.5652-3.96875 49.0027-15.25 53.1902-15.25 47.7058 0 47.1433 1.51562C46.7475 2.58854 46.2892 3.42188 45.7683 4.01562 45.2475 4.60938 44.6095 5.02083 43.8543 5.25 43.0991 5.47917 42.159 5.59375 41.034 5.59375ZM62.1477 0.28125C60.4498 0.28125 59.0227-0.0338542 57.8665-0.664062 56.7102-1.29427 55.8352-2.20312 55.2415-3.39062 54.6477-4.57812 54.3508-6.00521 54.3508-7.67188 54.3508-9.28646 54.6399-10.6771 55.218-11.8438 55.7961-13.0104 56.6451-13.9089 57.7649-14.5391 58.8847-15.1693 60.2623-15.4844 61.8977-15.4844 64.1685-15.4844 65.9628-14.8203 67.2805-13.4922 68.5982-12.1641 69.2571-10.2708 69.2571-7.8125 69.2571-7.6875 69.2519-7.51823 69.2415-7.30469 69.231-7.09115 69.2154-6.92708 69.1946-6.8125L58.4915-6.8125C58.5123-6.09375 58.6451-5.42188 58.8899-4.79688 59.1347-4.17188 59.5227-3.66927 60.054-3.28906 60.5852-2.90885 61.2831-2.71875 62.1477-2.71875 63.0435-2.71875 63.7623-2.91406 64.304-3.30469 64.8456-3.69531 65.1217-4.27604 65.1321-5.04688L69.2102-5.04688C69.1581-3.85938 68.8326-2.86979 68.2336-2.07812 67.6347-1.28646 66.817-0.695312 65.7805-0.304688 64.7441 0.0859375 63.5331 0.28125 62.1477 0.28125ZM58.5383-9.4375 65.1477-9.4375C65.1165-10.5 64.8013-11.2943 64.2024-11.8203 63.6034-12.3464 62.8352-12.6094 61.8977-12.6094 60.9394-12.6094 60.1555-12.3385 59.5461-11.7969 58.9368-11.2552 58.6008-10.4688 58.5383-9.4375ZM79.0904 0.28125C78.2467 0.28125 77.4185 0.203125 76.606 0.046875 75.7935-0.109375 75.0592-0.377604 74.4029-0.757812 73.7467-1.13802 73.2258-1.65625 72.8404-2.3125 72.455-2.96875 72.2623-3.78646 72.2623-4.76562L76.106-4.76562C76.106-3.91146 76.4055-3.31771 77.0045-2.98438 77.6034-2.65104 78.304-2.48438 79.106-2.48438 79.8977-2.48438 80.5123-2.61198 80.9498-2.86719 81.3873-3.1224 81.606-3.55208 81.606-4.15625 81.606-4.72917 81.3482-5.15625 80.8326-5.4375 80.317-5.71875 79.4133-6.00521 78.1217-6.29688 77.0383-6.55729 76.0722-6.8724 75.2232-7.24219 74.3743-7.61198 73.7102-8.10677 73.231-8.72656 72.7519-9.34635 72.5123-10.1615 72.5123-11.1719 72.5123-11.9635 72.6946-12.6354 73.0592-13.1875 73.4237-13.7396 73.9107-14.1849 74.5201-14.5234 75.1295-14.862 75.817-15.1094 76.5826-15.2656 77.3482-15.4219 78.1321-15.5 78.9342-15.5 79.7154-15.5 80.481-15.4219 81.231-15.2656 81.981-15.1094 82.6581-14.8464 83.2623-14.4766 83.8665-14.1068 84.3508-13.6094 84.7154-12.9844 85.08-12.3594 85.2623-11.5781 85.2623-10.6406L81.4185-10.6406C81.4185-11.4219 81.1711-11.9635 80.6764-12.2656 80.1816-12.5677 79.6008-12.7188 78.9342-12.7188 78.2154-12.7188 77.6503-12.6146 77.2389-12.4062 76.8274-12.1979 76.6217-11.8542 76.6217-11.375 76.6217-11.0938 76.7519-10.8464 77.0123-10.6328 77.2727-10.4193 77.6894-10.2214 78.2623-10.0391 78.8352-9.85677 79.5904-9.66146 80.5279-9.45312 81.5175-9.22396 82.4029-8.92708 83.1842-8.5625 83.9654-8.19792 84.5852-7.70833 85.0435-7.09375 85.5019-6.47917 85.731-5.68229 85.731-4.70312 85.731-3.78646 85.5461-3.01042 85.1764-2.375 84.8066-1.73958 84.3118-1.22656 83.692-0.835938 83.0722-0.445312 82.3639-0.161458 81.567 0.015625 80.7701 0.192708 79.9446 0.28125 79.0904 0.28125Z" transform="matrix(1.08 0 0 1.08 39.0276 61)"/></g></g><text font-family="Aptos,Aptos_MSFontService,sans-serif" font-weight="700" font-size="32" transform="translate(496.517 221)">Bayes</text><g clip-path="url(#clip3)" filter="url(#fx1)" transform="translate(455 198)"><g><path d="M2.51562 0 2.51562-21.0312 10.7656-21.0312C12.151-21.0312 13.4141-20.7865 14.5547-20.2969 15.6953-19.8073 16.6042-19.0625 17.2812-18.0625 17.9583-17.0625 18.2969-15.7865 18.2969-14.2344 18.2969-12.7031 17.9583-11.4375 17.2812-10.4375 16.6042-9.4375 15.6953-8.69531 14.5547-8.21094 13.4141-7.72656 12.151-7.48438 10.7656-7.48438L6.90625-7.48438 6.90625 0ZM6.90625-11.0156 10.3594-11.0156C11.3802-11.0156 12.2057-11.2865 12.8359-11.8281 13.4661-12.3698 13.7812-13.1719 13.7812-14.2344 13.7812-15.3385 13.4583-16.1562 12.8125-16.6875 12.1667-17.2188 11.349-17.4844 10.3594-17.4844L6.90625-17.4844ZM21.2388 0 21.2388-15.25 25.2075-15.25 25.2856-12.6094C25.6815-13.526 26.2752-14.2292 27.0669-14.7188 27.8585-15.2083 28.8169-15.4531 29.9419-15.4531L30.2544-15.4531 30.2544-11.9688 29.8638-11.9688C29.2492-11.9688 28.6606-11.9141 28.0981-11.8047 27.5356-11.6953 27.0252-11.5078 26.5669-11.2422 26.1085-10.9766 25.7127-10.6094 25.3794-10.1406L25.3794 0ZM33.0721 0 33.0721-15.25 37.2127-15.25 37.2127 0ZM35.1502-17.25C34.3898-17.25 33.8091-17.4427 33.408-17.8281 33.007-18.2135 32.8065-18.6927 32.8065-19.2656 32.8065-19.849 33.007-20.3307 33.408-20.7109 33.8091-21.0911 34.3898-21.2812 35.1502-21.2812 35.9106-21.2812 36.4914-21.0911 36.8924-20.7109 37.2934-20.3307 37.494-19.849 37.494-19.2656 37.494-18.6927 37.2934-18.2135 36.8924-17.8281 36.4914-17.4427 35.9106-17.25 35.1502-17.25ZM47.6971 0.28125C46.8533 0.28125 46.0252 0.203125 45.2127 0.046875 44.4002-0.109375 43.6658-0.377604 43.0096-0.757812 42.3533-1.13802 41.8325-1.65625 41.4471-2.3125 41.0617-2.96875 40.869-3.78646 40.869-4.76562L44.7127-4.76562C44.7127-3.91146 45.0122-3.31771 45.6111-2.98438 46.2101-2.65104 46.9106-2.48438 47.7127-2.48438 48.5044-2.48438 49.119-2.61198 49.5565-2.86719 49.994-3.1224 50.2127-3.55208 50.2127-4.15625 50.2127-4.72917 49.9549-5.15625 49.4393-5.4375 48.9236-5.71875 48.02-6.00521 46.7283-6.29688 45.645-6.55729 44.6789-6.8724 43.8299-7.24219 42.9809-7.61198 42.3169-8.10677 41.8377-8.72656 41.3585-9.34635 41.119-10.1615 41.119-11.1719 41.119-11.9635 41.3012-12.6354 41.6658-13.1875 42.0304-13.7396 42.5174-14.1849 43.1268-14.5234 43.7361-14.862 44.4236-15.1094 45.1893-15.2656 45.9549-15.4219 46.7387-15.5 47.5408-15.5 48.3221-15.5 49.0877-15.4219 49.8377-15.2656 50.5877-15.1094 51.2648-14.8464 51.869-14.4766 52.4731-14.1068 52.9575-13.6094 53.3221-12.9844 53.6867-12.3594 53.869-11.5781 53.869-10.6406L50.0252-10.6406C50.0252-11.4219 49.7778-11.9635 49.283-12.2656 48.7882-12.5677 48.2075-12.7188 47.5408-12.7188 46.8221-12.7188 46.257-12.6146 45.8455-12.4062 45.4341-12.1979 45.2283-11.8542 45.2283-11.375 45.2283-11.0938 45.3585-10.8464 45.619-10.6328 45.8794-10.4193 46.296-10.2214 46.869-10.0391 47.4419-9.85677 48.1971-9.66146 49.1346-9.45312 50.1242-9.22396 51.0096-8.92708 51.7908-8.5625 52.5721-8.19792 53.1919-7.70833 53.6502-7.09375 54.1085-6.47917 54.3377-5.68229 54.3377-4.70312 54.3377-3.78646 54.1528-3.01042 53.783-2.375 53.4132-1.73958 52.9184-1.22656 52.2986-0.835938 51.6788-0.445312 50.9705-0.161458 50.1736 0.015625 49.3768 0.192708 48.5512 0.28125 47.6971 0.28125ZM58.0721 0 58.0721-15.25 62.0565-15.25 62.1346-12.9688C62.6346-13.625 63.3247-14.2057 64.2049-14.7109 65.0851-15.2161 66.171-15.4687 67.4627-15.4688 68.994-15.4687 70.1684-14.987 70.9861-14.0234 71.8038-13.0599 72.2127-11.6927 72.2127-9.92188L72.2127 0 68.0721 0 68.0721-9.39062C68.0721-9.94271 67.9966-10.4271 67.8455-10.8438 67.6945-11.2604 67.4497-11.5833 67.1111-11.8125 66.7726-12.0417 66.3325-12.1562 65.7908-12.1562 64.9887-12.1562 64.3012-11.9635 63.7283-11.5781 63.1554-11.1927 62.6502-10.724 62.2127-10.1719L62.2127 0ZM78.0877 0 78.0877-9.39062C78.0877-9.94271 78.0122-10.4271 77.8611-10.8438 77.7101-11.2604 77.4653-11.5833 77.1268-11.8125 76.7882-12.0417 76.3481-12.1562 75.8065-12.1562 75.0044-12.1562 74.3143-11.9792 73.7361-11.625 73.158-11.2708 72.6398-10.8281 72.1815-10.2969L71.6815-12.8594C72.3377-13.5573 73.1424-14.1667 74.0955-14.6875 75.0486-15.2083 76.171-15.4687 77.4627-15.4688 78.9835-15.4687 80.158-14.987 80.9861-14.0234 81.8143-13.0599 82.2283-11.6927 82.2283-9.92188L82.2283 0Z" transform="matrix(1.08 0 0 1.08 39.59 61)"/></g></g><text font-family="Aptos,Aptos_MSFontService,sans-serif" font-weight="700" font-size="32" transform="translate(497.964 259)">Prism</text><path d="M561.882 254.715 563.82 251.557 571.828 256.473 569.89 259.63Z" fill="#D86ECC" fill-rule="evenodd"/><path d="M537.901 202.905 541.677 202.367 542.964 211.403 539.188 211.941Z" fill="#D86ECC" fill-rule="evenodd"/><path d="M491.73 245.863 499.292 244.858 499.893 249.381 492.332 250.387Z" fill="#D86ECC" fill-rule="evenodd"/><path d="M77 250C77 242.82 82.8204 237 90.0002 237L316 237C323.18 237 329 242.82 329 250L329 302C329 309.18 323.18 315 316 315L90.0002 315C82.8204 315 77 309.18 77 302Z" stroke="#0B3041" stroke-width="2" stroke-miterlimit="8" fill="#C1E5F5" fill-rule="evenodd"/><text fill="#262626" font-family="Aptos,Aptos_MSFontService,sans-serif" font-weight="700" font-size="21.3333" transform="translate(123.918 270)">CPTAC bulk RNA</text><text fill="#262626" font-family="Aptos,Aptos_MSFontService,sans-serif" font-weight="700" font-size="21.3333" transform="translate(121.791 295)">sequencing Data</text><path d="M357 215 455.188 215 455.188 219 357 219ZM453.188 211 465.188 217 453.188 223Z"/><path d="M688 139.333C688 133.626 692.626 129 698.333 129L928.667 129C934.374 129 939 133.626 939 139.333L939 180.667C939 186.374 934.374 191 928.667 191L698.333 191C692.626 191 688 186.374 688 180.667Z" stroke="#275317" stroke-width="2" stroke-miterlimit="8" fill="#D9F2D0" fill-rule="evenodd"/><text fill="#262626" font-family="Aptos,Aptos_MSFontService,sans-serif" font-weight="700" font-size="21.3333" transform="translate(742.51 167)">Deconvolution</text><path d="M690 254C690 246.82 695.82 241 703 241L929 241C936.18 241 942 246.82 942 254L942 306C942 313.18 936.18 319 929 319L703 319C695.82 319 690 313.18 690 306Z" stroke="#50164A" stroke-width="2" stroke-miterlimit="8" fill="#F2CFEE" fill-rule="evenodd"/><text fill="#262626" font-family="Aptos,Aptos_MSFontService,sans-serif" font-weight="700" font-size="21.3333" transform="translate(729.01 274)">Cell</text><text fill="#262626" font-family="Aptos,Aptos_MSFontService,sans-serif" font-weight="700" font-size="21.3333" transform="translate(768.51 274)">-</text><text fill="#262626" font-family="Aptos,Aptos_MSFontService,sans-serif" font-weight="700" font-size="21.3333" transform="translate(775.843 274)">type</text><text fill="#262626" font-family="Aptos,Aptos_MSFontService,sans-serif" font-weight="700" font-size="21.3333" transform="translate(818.343 274)">-</text><text fill="#262626" font-family="Aptos,Aptos_MSFontService,sans-serif" font-weight="700" font-size="21.3333" transform="translate(825.676 274)">specific</text><text fill="#262626" font-family="Aptos,Aptos_MSFontService,sans-serif" font-weight="700" font-size="21.3333" transform="translate(762.87 299)">expression</text><path d="M329 157C344.464 157 357 157 357 157L357 282C357 282 344.464 282 329 282" stroke="#000000" stroke-width="4" stroke-miterlimit="8" fill="none" fill-rule="evenodd"/><path d="M996 256C996 248.82 1001.82 243 1009 243L1150 243C1157.18 243 1163 248.82 1163 256L1163 308C1163 315.18 1157.18 321 1150 321L1009 321C1001.82 321 996 315.18 996 308Z" stroke="#50164A" stroke-width="2" stroke-miterlimit="8" fill="#F2CFEE" fill-rule="evenodd"/><text fill="#262626" font-family="Aptos,Aptos_MSFontService,sans-serif" font-weight="700" font-size="21.3333" transform="translate(1011.19 289)">Z score matrix</text><path d="M939.015 280 985.785 280.345 985.755 284.345 938.985 284ZM983.814 276.33 995.77 282.418 983.726 288.33Z"/><path d="M581 227 636.832 227 636.832 231 581 231ZM634.832 223 646.832 229 634.832 235Z"/><path d="M0 0C23.196 -6.07077e-20 42 0.00018361 42 0.000410105L42 125C42 125 23.196 125-7.95709e-15 125" stroke="#000000" stroke-width="4" stroke-miterlimit="8" fill="none" fill-rule="evenodd" transform="matrix(-1 0 0 1 688 156)"/><path d="M954 377.834C954 370.746 959.746 365 966.834 365L1193.17 365C1200.25 365 1206 370.746 1206 377.834L1206 429.166C1206 436.254 1200.25 442 1193.17 442L966.834 442C959.746 442 954 436.254 954 429.166Z" stroke="#50164A" stroke-width="2" stroke-miterlimit="8" fill="#F2CFEE" fill-rule="evenodd"/><text fill="#262626" font-family="Aptos,Aptos_MSFontService,sans-serif" font-weight="700" font-size="21.3333" transform="translate(988.816 411)">Stabl</text><text fill="#262626" font-family="Aptos,Aptos_MSFontService,sans-serif" font-weight="700" font-size="21.3333" transform="translate(1044.28 411)">ML algorithm</text><path d="M1082 321 1082 355.501 1078 355.501 1078 321ZM1086 353.501 1080 365.501 1074 353.501Z"/><path d="M984 57.0003C984 49.8204 989.82 44 997 44L1162 44C1169.18 44 1175 49.8204 1175 57.0003L1175 109C1175 116.18 1169.18 122 1162 122L997 122C989.82 122 984 116.18 984 109Z" stroke="#50164A" stroke-width="2" stroke-miterlimit="8" fill="#F2CFEE" fill-rule="evenodd"/><text fill="#262626" font-family="Aptos,Aptos_MSFontService,sans-serif" font-weight="700" font-size="21.3333" transform="translate(1015.78 77)">Custom gene</text><text fill="#262626" font-family="Aptos,Aptos_MSFontService,sans-serif" font-weight="700" font-size="21.3333" transform="translate(1034.19 102)">signature</text><path d="M1082 122 1082 233.329 1078 233.329 1078 122ZM1086 231.329 1080 243.329 1074 231.329Z"/><path d="M293 315 293 356.772 289 356.772 289 315ZM297 354.772 291 366.772 285 354.772Z"/><path d="M229 374.667C229 369.88 232.88 366 237.667 366L374.333 366C379.12 366 383 369.88 383 374.667L383 409.333C383 414.12 379.12 418 374.333 418L237.667 418C232.88 418 229 414.12 229 409.333Z" stroke="#50164A" stroke-width="2" stroke-miterlimit="8" fill="#F2CFEE" fill-rule="evenodd"/><text fill="#262626" font-family="Aptos,Aptos_MSFontService,sans-serif" font-weight="700" font-size="21.3333" transform="translate(268.264 399)">DESeq2</text><path d="M185 313 185 453.481 181 453.481 181 313ZM189 451.481 183 463.481 177 451.481Z"/><path d="M112 473.167C112 468.104 116.104 464 121.167 464L310.833 464C315.896 464 320 468.104 320 473.167L320 509.833C320 514.896 315.896 519 310.833 519L121.167 519C116.104 519 112 514.896 112 509.833Z" stroke="#50164A" stroke-width="2" stroke-miterlimit="8" fill="#F2CFEE" fill-rule="evenodd"/><text fill="#262626" font-family="Aptos,Aptos_MSFontService,sans-serif" font-weight="700" font-size="21.3333" transform="translate(138.615 499)">TimiGP</text><text fill="#262626" font-family="Aptos,Aptos_MSFontService,sans-serif" font-weight="700" font-size="21.3333" transform="translate(212.449 499)">analysis</text><path d="M1082 442 1082 483.772 1078 483.772 1078 442ZM1086 481.772 1080 493.772 1074 481.772Z"/><path d="M956 503.834C956 496.746 961.746 491 968.834 491L1195.17 491C1202.25 491 1208 496.746 1208 503.834L1208 555.166C1208 562.254 1202.25 568 1195.17 568L968.834 568C961.746 568 956 562.254 956 555.166Z" stroke="#50164A" stroke-width="2" stroke-miterlimit="8" fill="#F2CFEE" fill-rule="evenodd"/><text fill="#262626" font-family="Aptos,Aptos_MSFontService,sans-serif" font-weight="700" font-size="21.3333" transform="translate(988.179 537)">Bayesian Modelling</text><path d="M1221 568C1221 588.435 1202.54 605.001 1179.77 605.001L715.004 605.001C692.233 605.001 673.773 621.566 673.773 642.001 673.773 621.566 655.313 605.001 632.542 605.001L144.231 605.001C121.46 605.001 103 588.435 103 568" stroke="#000000" stroke-width="4" stroke-miterlimit="8" fill="none" fill-rule="evenodd"/><path d="M544 655.834C544 648.746 549.746 643 556.834 643L782.166 643C789.254 643 795 648.746 795 655.834L795 707.166C795 714.254 789.254 720 782.166 720L556.834 720C549.746 720 544 714.254 544 707.166Z" stroke="#50164A" stroke-width="2" stroke-miterlimit="8" fill="#F2CFEE" fill-rule="evenodd"/><text fill="#262626" font-family="Aptos,Aptos_MSFontService,sans-serif" font-weight="700" font-size="21.3333" transform="translate(596.916 688)">Interactive app</text><path d="M1085 168C1085 157.507 1093.51 149 1104 149L1256 149C1266.49 149 1275 157.507 1275 168L1275 168C1275 178.493 1266.49 187 1256 187L1104 187C1093.51 187 1085 178.493 1085 168Z" stroke="#80350E" stroke-width="2" stroke-miterlimit="8" fill="#FBE3D6" fill-rule="evenodd"/><text fill="#262626" font-family="Aptos,Aptos_MSFontService,sans-serif" font-weight="700" font-size="21.3333" transform="translate(1117.55 175)">LLM curation</text></g></svg>