<svg width="2508" height="1758" xmlns="http://www.w3.org/2000/svg" xmlns:xlink="http://www.w3.org/1999/xlink" xml:space="preserve" overflow="hidden"><defs><filter id="fx0" x="-10%" y="-10%" width="120%" height="120%" filterUnits="userSpaceOnUse" primitiveUnits="userSpaceOnUse"><feComponentTransfer color-interpolation-filters="sRGB"><feFuncR type="discrete" tableValues="0 0"/><feFuncG type="discrete" tableValues="0 0"/><feFuncB type="discrete" tableValues="0 0"/><feFuncA type="linear" slope="0.678431" intercept="0"/></feComponentTransfer><feGaussianBlur stdDeviation="7.62947 7.6587"/></filter><filter id="fx1" x="-10%" y="-10%" width="120%" height="120%" filterUnits="userSpaceOnUse" primitiveUnits="userSpaceOnUse"><feComponentTransfer color-interpolation-filters="sRGB"><feFuncR type="discrete" tableValues="0 0"/><feFuncG type="discrete" tableValues="0 0"/><feFuncB type="discrete" tableValues="0 0"/><feFuncA type="linear" slope="0.678431" intercept="0"/></feComponentTransfer><feGaussianBlur stdDeviation="7.62947 7.6587"/></filter><clipPath id="clip2"><rect x="20.5" y="16.5632" width="162" height="94.8621"/></clipPath><clipPath id="clip3"><rect x="0" y="0" width="210" height="131"/></clipPath><clipPath id="clip4"><rect x="20.5" y="16.5632" width="158" height="86.8314"/></clipPath><clipPath id="clip5"><rect x="0" y="0" width="199" height="131"/></clipPath></defs><g transform="translate(-2655 -106)"><rect x="2658.5" y="109.5" width="2501" height="1751" stroke="#FFFFFF" stroke-width="6.875" stroke-miterlimit="8" fill="#FFFFFF"/><path d="M2815.5 239C2815.5 226.021 2826.02 215.5 2839 215.5L3174 215.5C3186.98 215.5 3197.5 226.021 3197.5 239L3197.5 333C3197.5 345.979 3186.98 356.5 3174 356.5L2839 356.5C2826.02 356.5 2815.5 345.979 2815.5 333Z" stroke="#800000" stroke-width="6.875" stroke-miterlimit="8" fill="#FFC9C9" fill-rule="evenodd"/><text fill="#262626" font-family="Aptos,Aptos_MSFontService,sans-serif" font-weight="700" font-size="50" transform="matrix(1 0 0 1 2872.92 272)">GEO </text><text fill="#262626" font-family="Aptos,Aptos_MSFontService,sans-serif" font-weight="700" font-size="50" transform="matrix(1 0 0 1 2985.21 272)">scRNA</text><text fill="#262626" font-family="Aptos,Aptos_MSFontService,sans-serif" font-weight="700" font-size="50" transform="matrix(1 0 0 1 2953.97 332)">data </text><path d="M2743.5 484C2743.5 471.022 2754.02 460.5 2767 460.5L3246 460.5C3258.98 460.5 3269.5 471.022 3269.5 484L3269.5 578C3269.5 590.979 3258.98 601.5 3246 601.5L2767 601.5C2754.02 601.5 2743.5 590.979 2743.5 578Z" stroke="#800000" stroke-width="6.875" stroke-miterlimit="8" fill="#FFC9C9" fill-rule="evenodd"/><text fill="#262626" font-family="Aptos,Aptos_MSFontService,sans-serif" font-weight="700" font-size="50" transform="matrix(1 0 0 1 2800.16 517)">SingleR+Monaco+</text><text fill="#262626" font-family="Aptos,Aptos_MSFontService,sans-serif" font-weight="700" font-size="50" transform="matrix(1 0 0 1 2948.54 577)">DICE</text><path d="M3012.88 356 3012.88 425.862 2999.13 425.862 2999.12 356ZM3026.63 418.987 3006 460.237 2985.38 418.987Z"/><path d="M3709.24 458 3511 748.219 3624.45 894 3909 835.249ZM3713.35 524.011 3865.99 812.251 3646.4 857.614ZM3681.98 547.208 3622.17 845.225 3545.62 746.863Z" fill="#D86ECC" fill-rule="evenodd"/><g clip-path="url(#clip2)" filter="url(#fx0)" transform="matrix(2 0 0 1.99237 3508 513)"><g clip-path="url(#clip3)"><path d="M5.73877 0 5.73877-47.9775 22.1353-47.9775C27.3156-47.9775 31.4147-46.9973 34.4326-45.0369 37.4505-43.0764 38.9595-40.0644 38.9595-36.001 38.9595-33.4583 38.3238-31.3018 37.0525-29.5315 35.7812-27.7611 34.088-26.4839 31.9731-25.6997 35.3-25.0343 37.8367-23.6798 39.5832-21.6362 41.3298-19.5926 42.2031-17.0737 42.2031-14.0796 42.2031-10.8716 41.4724-8.22795 40.011-6.14868 38.5496-4.06942 36.4584-2.52482 33.7375-1.51489 31.0167-0.504964 27.7552 0 23.9531 0ZM15.7549-8.30517 23.5967-8.30517C25.165-8.30517 26.5908-8.50122 27.874-8.89331 29.1572-9.2854 30.1731-9.97453 30.9216-10.9607 31.6702-11.9469 32.0444-13.2716 32.0444-14.9351 32.0444-17.0737 31.2484-18.6005 29.6562-19.5154 28.0641-20.4303 26.0443-20.8877 23.5967-20.8877L15.7549-20.8877ZM15.7549-28.5513 21.9927-28.5513C23.9175-28.5513 25.5334-29.0503 26.8403-30.0483 28.1473-31.0464 28.8008-32.5078 28.8008-34.4326 28.8008-35.7871 28.5037-36.8624 27.9097-37.6584 27.3156-38.4545 26.5076-39.0248 25.4858-39.3694 24.464-39.7139 23.2996-39.8862 21.9927-39.8862L15.7549-39.8862ZM59.8034 0.605957C57.831 0.605957 55.9894 0.225749 54.2785-0.534668 52.5675-1.29508 51.1833-2.44165 50.1259-3.97436 49.0684-5.50708 48.5397-7.42594 48.5397-9.73096 48.5397-12.939 49.5021-15.3568 51.4269-16.9846 53.3517-18.6124 56.0429-19.7174 59.5004-20.2996 62.9579-20.8818 66.9798-21.2204 71.5661-21.3154L71.5661-23.1689C71.5661-25.4264 71.0255-26.971 69.9443-27.8027 68.863-28.6344 67.467-29.0503 65.756-29.0503 63.8787-29.0503 62.3341-28.6047 61.1222-27.7136 59.9103-26.8225 59.3044-25.3789 59.3044-23.3828L50.4645-23.3828C50.4645-26.3532 51.1121-28.7057 52.4071-30.4404 53.7022-32.1751 55.4963-33.4227 57.7895-34.1831 60.0826-34.9435 62.7381-35.3237 65.756-35.3237 67.966-35.3237 69.9858-35.1396 71.8156-34.7712 73.6453-34.4029 75.2315-33.7673 76.5741-32.8643 77.9167-31.9613 78.9564-30.7315 79.693-29.175 80.4297-27.6186 80.798-25.6759 80.798-23.3472L80.798 0 71.9582 0 71.673-4.52685C70.1997-2.83968 68.4888-1.56242 66.5402-0.695068 64.5916 0.172282 62.346 0.605957 59.8034 0.605957ZM62.9045-5.88135C64.6867-5.88135 66.3323-6.34473 67.8412-7.27148 69.3502-8.19824 70.5561-9.2557 71.4591-10.4438L71.4591-16.0757C66.4689-16.0519 62.9757-15.5826 60.9797-14.6677 58.9836-13.7528 57.9855-12.2736 57.9855-10.23 57.9855-8.75667 58.4429-7.66357 59.3578-6.95068 60.2727-6.23779 61.4549-5.88135 62.9045-5.88135ZM89.7489 12.7607 89.7489 5.09717 92.8856 5.09717C94.2876 5.09717 95.4579 4.84766 96.3966 4.34863 97.3352 3.84961 98.0184 3.02978 98.4462 1.88916L99.2303 0 85.6854-34.7891 95.5233-34.7891 104.327-9.05371 112.169-34.7891 121.722-34.7891 109.211 0 107.928 3.45752C107.025 5.90511 105.979 7.80615 104.791 9.16064 103.603 10.5151 102.147 11.4538 100.424 11.9766 98.7016 12.4993 96.557 12.7607 93.9906 12.7607ZM142.135 0.641602C138.261 0.641602 135.006-0.0772299 132.368-1.51489 129.73-2.95255 127.734-5.02588 126.38-7.73486 125.025-10.4438 124.348-13.6994 124.348-17.5015 124.348-21.1847 125.007-24.3571 126.326-27.0186 127.645-29.68 129.582-31.7296 132.136-33.1672 134.691-34.6049 137.834-35.3237 141.564-35.3237 146.745-35.3237 150.838-33.8088 153.844-30.779 156.85-27.7493 158.353-23.4303 158.353-17.8223 158.353-17.5371 158.341-17.151 158.317-16.6638 158.294-16.1767 158.258-15.8024 158.21-15.541L133.794-15.541C133.841-13.9014 134.144-12.3687 134.703-10.9429 135.261-9.51709 136.146-8.37052 137.358-7.50317 138.57-6.63582 140.162-6.20215 142.135-6.20215 144.178-6.20215 145.818-6.6477 147.054-7.53882 148.289-8.42993 148.919-9.75472 148.943-11.5132L158.246-11.5132C158.127-8.8042 157.385-6.54671 156.018-4.74072 154.652-2.93473 152.786-1.58618 150.422-0.695068 148.058 0.196045 145.295 0.641602 142.135 0.641602ZM133.901-21.5293 148.978-21.5293C148.907-23.9531 148.188-25.7651 146.822-26.9651 145.456-28.1651 143.703-28.7651 141.564-28.7651 139.378-28.7651 137.59-28.1473 136.2-26.9116 134.81-25.6759 134.043-23.8818 133.901-21.5293ZM180.78 0.641602C178.855 0.641602 176.966 0.463379 175.113 0.106934 173.259-0.249512 171.584-0.861409 170.087-1.72876 168.59-2.59611 167.401-3.77832 166.522-5.27539 165.643-6.77246 165.203-8.63786 165.203-10.8716L173.972-10.8716C173.972-8.92301 174.655-7.56852 176.021-6.8081 177.388-6.04769 178.986-5.66748 180.816-5.66748 182.622-5.66748 184.024-5.95858 185.022-6.54077 186.02-7.12296 186.519-8.10319 186.519-9.48144 186.519-10.7884 185.931-11.7627 184.754-12.4043 183.578-13.0459 181.517-13.6994 178.57-14.3647 176.099-14.9588 173.895-15.6777 171.958-16.5212 170.021-17.3648 168.506-18.4936 167.413-19.9075 166.32-21.3214 165.774-23.1808 165.774-25.4858 165.774-27.2918 166.189-28.8245 167.021-30.084 167.853-31.3434 168.964-32.3593 170.354-33.1316 171.744-33.9039 173.312-34.4683 175.059-34.8247 176.806-35.1811 178.594-35.3594 180.424-35.3594 182.206-35.3594 183.952-35.1811 185.663-34.8247 187.374-34.4683 188.919-33.8682 190.297-33.0247 191.675-32.1811 192.78-31.0464 193.612-29.6206 194.444-28.1948 194.86-26.4126 194.86-24.2739L186.091-24.2739C186.091-26.0562 185.527-27.2918 184.398-27.981 183.269-28.6701 181.944-29.0146 180.424-29.0146 178.784-29.0146 177.495-28.777 176.556-28.3018 175.617-27.8265 175.148-27.0423 175.148-25.9492 175.148-25.3076 175.445-24.7432 176.039-24.2561 176.633-23.769 177.584-23.3175 178.891-22.9016 180.198-22.4858 181.921-22.0402 184.059-21.5649 186.317-21.0422 188.337-20.3649 190.119-19.5332 191.901-18.7015 193.315-17.5846 194.361-16.1826 195.406-14.7806 195.929-12.9627 195.929-10.729 195.929-8.63786 195.507-6.86751 194.664-5.41797 193.82-3.96842 192.691-2.7981 191.277-1.90698 189.863-1.01587 188.248-0.368327 186.43 0.0356445 184.612 0.439616 182.729 0.641602 180.78 0.641602Z" transform="matrix(0.54 0 0 0.542069 47.0309 73)"/></g></g><text font-family="Aptos,Aptos_MSFontService,sans-serif" font-weight="700" font-size="73" transform="matrix(1 0 0 1 3610.04 656)">Bayes </text><g clip-path="url(#clip4)" filter="url(#fx1)" transform="matrix(2 0 0 1.99237 3511 601)"><g clip-path="url(#clip5)"><path d="M5.73877 0 5.73877-47.9775 24.5591-47.9775C27.7196-47.9775 30.6008-47.4191 33.2029-46.3022 35.8049-45.1854 37.8783-43.4863 39.4228-41.2051 40.9674-38.9238 41.7397-36.0129 41.7397-32.4722 41.7397-28.979 40.9674-26.0918 39.4228-23.8105 37.8783-21.5293 35.8049-19.8362 33.2029-18.7312 30.6008-17.6262 27.7196-17.0737 24.5591-17.0737L15.7549-17.0737 15.7549 0ZM15.7549-25.1294 23.6323-25.1294C25.9611-25.1294 27.8443-25.7472 29.282-26.9829 30.7196-28.2186 31.4385-30.0483 31.4385-32.4722 31.4385-34.991 30.7018-36.8564 29.2285-38.0684 27.7552-39.2803 25.8898-39.8862 23.6323-39.8862L15.7549-39.8862ZM49.0386 0 49.0386-34.7891 58.0923-34.7891 58.2705-28.7651C59.1735-30.8563 60.528-32.4603 62.334-33.5771 64.14-34.694 66.3262-35.2524 68.8926-35.2524L69.6055-35.2524 69.6055-27.3037 68.7144-27.3037C67.3124-27.3037 65.9698-27.179 64.6866-26.9294 63.4034-26.6799 62.239-26.2522 61.1934-25.6462 60.1478-25.0403 59.2448-24.2026 58.4844-23.1333L58.4844 0ZM75.9657 0 75.9657-34.7891 85.4115-34.7891 85.4115 0ZM80.7064-39.3516C78.9717-39.3516 77.6469-39.7912 76.732-40.6704 75.8172-41.5496 75.3597-42.6427 75.3597-43.9497 75.3597-45.2804 75.8172-46.3795 76.732-47.2468 77.6469-48.1142 78.9717-48.5478 80.7064-48.5478 82.4411-48.5478 83.7659-48.1142 84.6808-47.2468 85.5956-46.3795 86.0531-45.2804 86.0531-43.9497 86.0531-42.6427 85.5956-41.5496 84.6808-40.6704 83.7659-39.7912 82.4411-39.3516 80.7064-39.3516ZM109.418 0.641602C107.493 0.641602 105.604 0.463379 103.75 0.106934 101.897-0.249512 100.221-0.861409 98.7241-1.72876 97.2271-2.59611 96.0389-3.77832 95.1597-5.27539 94.2805-6.77246 93.8408-8.63786 93.8408-10.8716L102.609-10.8716C102.609-8.92301 103.293-7.56852 104.659-6.8081 106.025-6.04769 107.623-5.66748 109.453-5.66748 111.259-5.66748 112.661-5.95858 113.659-6.54077 114.657-7.12296 115.156-8.10319 115.156-9.48144 115.156-10.7884 114.568-11.7627 113.392-12.4043 112.216-13.0459 110.154-13.6994 107.208-14.3647 104.736-14.9588 102.532-15.6777 100.595-16.5212 98.6588-17.3648 97.1439-18.4936 96.0508-19.9075 94.9577-21.3214 94.4111-23.1808 94.4112-25.4858 94.4111-27.2918 94.827-28.8245 95.6587-30.084 96.4904-31.3434 97.6013-32.3593 98.9915-33.1316 100.382-33.9039 101.95-34.4683 103.697-34.8247 105.443-35.1811 107.231-35.3594 109.061-35.3594 110.843-35.3594 112.59-35.1811 114.301-34.8247 116.012-34.4683 117.556-33.8682 118.935-33.0247 120.313-32.1811 121.418-31.0464 122.25-29.6206 123.081-28.1948 123.497-26.4126 123.497-24.2739L114.729-24.2739C114.729-26.0562 114.164-27.2918 113.035-27.981 111.907-28.6701 110.582-29.0146 109.061-29.0146 107.421-29.0146 106.132-28.777 105.194-28.3018 104.255-27.8265 103.786-27.0423 103.786-25.9492 103.786-25.3076 104.083-24.7432 104.677-24.2561 105.271-23.769 106.221-23.3175 107.528-22.9016 108.835-22.4858 110.558-22.0402 112.697-21.5649 114.954-21.0422 116.974-20.3649 118.756-19.5332 120.539-18.7015 121.952-17.5846 122.998-16.1826 124.044-14.7806 124.566-12.9627 124.566-10.729 124.566-8.63786 124.145-6.86751 123.301-5.41797 122.457-3.96842 121.329-2.7981 119.915-1.90698 118.501-1.01587 116.885-0.368327 115.067 0.0356445 113.249 0.439616 111.366 0.641602 109.418 0.641602ZM133.257 0 133.257-34.7891 142.347-34.7891 142.525-29.585C143.666-31.082 145.24-32.4068 147.248-33.5593 149.256-34.7118 151.733-35.2881 154.68-35.2881 158.173-35.2881 160.852-34.189 162.718-31.991 164.583-29.7929 165.516-26.674 165.516-22.6343L165.516 0 156.07 0 156.07-21.4224C156.07-22.6818 155.898-23.7868 155.553-24.7373 155.208-25.6878 154.65-26.4245 153.878-26.9473 153.105-27.47 152.101-27.7314 150.866-27.7314 149.036-27.7314 147.468-27.2918 146.161-26.4126 144.854-25.5334 143.701-24.464 142.703-23.2046L142.703 0ZM178.918 0 178.918-21.4224C178.918-22.6818 178.746-23.7868 178.401-24.7373 178.057-25.6878 177.498-26.4245 176.726-26.9473 175.954-27.47 174.95-27.7314 173.714-27.7314 171.884-27.7314 170.31-27.3275 168.991-26.5195 167.672-25.7116 166.49-24.7017 165.444-23.4897L164.304-29.3354C165.801-30.9276 167.636-32.3177 169.811-33.5059 171.985-34.694 174.546-35.2881 177.492-35.2881 180.962-35.2881 183.641-34.189 185.53-31.991 187.419-29.7929 188.364-26.674 188.364-22.6343L188.364 0Z" transform="matrix(0.54 0 0 0.542069 47.1643 73)"/></g></g><text font-family="Aptos,Aptos_MSFontService,sans-serif" font-weight="700" font-size="73" transform="matrix(1 0 0 1 3613.07 744)">Prism</text><path d="M3755.2 731.164 3759.37 724.37 3776.1 734.642 3771.93 741.436Z" fill="#D86ECC" fill-rule="evenodd"/><path d="M3705.1 619.508 3712.99 618.384 3715.76 637.829 3707.87 638.952Z" fill="#D86ECC" fill-rule="evenodd"/><path d="M3608.64 711.933 3624.44 709.832 3625.74 719.566 3609.94 721.668Z" fill="#D86ECC" fill-rule="evenodd"/><path d="M2743.5 721.333C2743.5 705.961 2755.96 693.5 2771.33 693.5L3241.67 693.5C3257.04 693.5 3269.5 705.961 3269.5 721.333L3269.5 832.666C3269.5 848.038 3257.04 860.5 3241.67 860.5L2771.33 860.5C2755.96 860.5 2743.5 848.038 2743.5 832.666Z" stroke="#0B3041" stroke-width="6.875" stroke-miterlimit="8" fill="#C1E5F5" fill-rule="evenodd"/><text fill="#262626" font-family="Aptos,Aptos_MSFontService,sans-serif" font-weight="700" font-size="50" transform="matrix(1 0 0 1 2815.9 763)">CPTAC bulk RNA </text><text fill="#262626" font-family="Aptos,Aptos_MSFontService,sans-serif" font-weight="700" font-size="50" transform="matrix(1 0 0 1 2812.76 823)">sequencing Data</text><path d="M3327 642.125 3518.71 642.125 3518.71 655.875 3327 655.875ZM3511.83 628.375 3553.08 649 3511.83 669.625Z"/><path d="M4018.5 483.001C4018.5 470.574 4028.57 460.5 4041 460.5L4522 460.5C4534.43 460.5 4544.5 470.574 4544.5 483.001L4544.5 572.999C4544.5 585.426 4534.43 595.5 4522 595.5L4041 595.5C4028.57 595.5 4018.5 585.426 4018.5 572.999Z" stroke="#275317" stroke-width="6.875" stroke-miterlimit="8" fill="#D9F2D0" fill-rule="evenodd"/><text fill="#262626" font-family="Aptos,Aptos_MSFontService,sans-serif" font-weight="700" font-size="50" transform="matrix(1 0 0 1 4113.24 544)">Deconvolution</text><path d="M4023.5 730.334C4023.5 714.962 4035.96 702.5 4051.33 702.5L4521.67 702.5C4537.04 702.5 4549.5 714.962 4549.5 730.334L4549.5 841.666C4549.5 857.038 4537.04 869.5 4521.67 869.5L4051.33 869.5C4035.96 869.5 4023.5 857.038 4023.5 841.666Z" stroke="#50164A" stroke-width="6.875" stroke-miterlimit="8" fill="#F2CFEE" fill-rule="evenodd"/><text fill="#262626" font-family="Aptos,Aptos_MSFontService,sans-serif" font-weight="700" font-size="50" transform="matrix(1 0 0 1 4080.74 772)">Cell</text><text fill="#262626" font-family="Aptos,Aptos_MSFontService,sans-serif" font-weight="700" font-size="50" transform="matrix(1 0 0 1 4174.13 772)">-</text><text fill="#262626" font-family="Aptos,Aptos_MSFontService,sans-serif" font-weight="700" font-size="50" transform="matrix(1 0 0 1 4191.31 772)">type</text><text fill="#262626" font-family="Aptos,Aptos_MSFontService,sans-serif" font-weight="700" font-size="50" transform="matrix(1 0 0 1 4291.58 772)">-</text><text fill="#262626" font-family="Aptos,Aptos_MSFontService,sans-serif" font-weight="700" font-size="50" transform="matrix(1 0 0 1 4308.76 772)">specific </text><text fill="#262626" font-family="Aptos,Aptos_MSFontService,sans-serif" font-weight="700" font-size="50" transform="matrix(1 0 0 1 4159.8 832)">expression</text><path d="M3269 520C3301.03 520 3327 520 3327 520.001L3327 788.999C3327 789 3301.03 789 3269 789" stroke="#000000" stroke-width="13.75" stroke-miterlimit="8" fill="none" fill-rule="evenodd"/><path d="M4663.5 734.334C4663.5 718.961 4675.96 706.5 4691.33 706.5L4984.67 706.5C5000.04 706.5 5012.5 718.961 5012.5 734.334L5012.5 845.666C5012.5 861.038 5000.04 873.5 4984.67 873.5L4691.33 873.5C4675.96 873.5 4663.5 861.038 4663.5 845.666Z" stroke="#50164A" stroke-width="6.875" stroke-miterlimit="8" fill="#F2CFEE" fill-rule="evenodd"/><text fill="#262626" font-family="Aptos,Aptos_MSFontService,sans-serif" font-weight="700" font-size="50" transform="matrix(1 0 0 1 4754.2 776)">Z score </text><text fill="#262626" font-family="Aptos,Aptos_MSFontService,sans-serif" font-weight="700" font-size="50" transform="matrix(1 0 0 1 4763.37 836)">matrix</text><path d="M4544.05 782.125 4628.31 782.765 4628.21 796.514 4543.95 795.875ZM4621.54 768.963 4662.63 789.9 4621.23 810.212Z"/><path d="M3794 669.125 3897.19 669.125 3897.19 682.875 3794 682.875ZM3890.32 655.375 3931.57 676.001 3890.32 696.625Z"/><path d="M0 0C47.4965 -1.31129e-19 85.9999 0.000396598 85.9999 0.000885826L85.9999 269.999C85.9999 269.999 47.4965 270-1.71873e-14 270" stroke="#000000" stroke-width="13.75" stroke-miterlimit="8" fill="none" fill-rule="evenodd" transform="matrix(-1 0 0 1 4018 518)"/><path d="M4574.5 996.333C4574.5 980.961 4586.96 968.5 4602.33 968.5L5072.67 968.5C5088.04 968.5 5100.5 980.961 5100.5 996.333L5100.5 1107.67C5100.5 1123.04 5088.04 1135.5 5072.67 1135.5L4602.33 1135.5C4586.96 1135.5 4574.5 1123.04 4574.5 1107.67Z" stroke="#50164A" stroke-width="6.875" stroke-miterlimit="8" fill="#F2CFEE" fill-rule="evenodd"/><text fill="#262626" font-family="Aptos,Aptos_MSFontService,sans-serif" font-weight="700" font-size="50" transform="matrix(1 0 0 1 4622.43 1069)">Stabl</text><text fill="#262626" font-family="Aptos,Aptos_MSFontService,sans-serif" font-weight="700" font-size="50" transform="matrix(1 0 0 1 4753.63 1069)">ML algorithm</text><path d="M4843.88 873 4843.88 934.383 4830.12 934.383 4830.12 873ZM4857.62 927.508 4837 968.758 4816.38 927.508Z"/><path d="M4638.5 297.334C4638.5 281.962 4650.96 269.5 4666.33 269.5L5008.67 269.5C5024.04 269.5 5036.5 281.962 5036.5 297.334L5036.5 408.666C5036.5 424.038 5024.04 436.5 5008.67 436.5L4666.33 436.5C4650.96 436.5 4638.5 424.038 4638.5 408.666Z" stroke="#50164A" stroke-width="6.875" stroke-miterlimit="8" fill="#F2CFEE" fill-rule="evenodd"/><text fill="#262626" font-family="Aptos,Aptos_MSFontService,sans-serif" font-weight="700" font-size="50" transform="matrix(1 0 0 1 4685.74 339)">Custom gene </text><text fill="#262626" font-family="Aptos,Aptos_MSFontService,sans-serif" font-weight="700" font-size="50" transform="matrix(1 0 0 1 4729.28 399)">signature</text><path d="M4843.88 436 4843.88 672.132 4830.13 672.132 4830.12 436ZM4857.63 665.257 4837 706.507 4816.38 665.257Z"/><path d="M3196.88 860 3196.88 937.03 3183.13 937.03 3183.12 860ZM3210.63 930.155 3190 971.405 3169.38 930.155Z"/><path d="M3149.5 992.834C3149.5 982.708 3157.71 974.5 3167.83 974.5L3454.17 974.5C3464.29 974.5 3472.5 982.708 3472.5 992.834L3472.5 1066.17C3472.5 1076.29 3464.29 1084.5 3454.17 1084.5L3167.83 1084.5C3157.71 1084.5 3149.5 1076.29 3149.5 1066.17Z" stroke="#50164A" stroke-width="6.875" stroke-miterlimit="8" fill="#F2CFEE" fill-rule="evenodd"/><text fill="#262626" font-family="Aptos,Aptos_MSFontService,sans-serif" font-weight="700" font-size="50" transform="matrix(1 0 0 1 3221.12 1046)">DESeq2</text><path d="M3102.88 864 3102.88 1100.87 3089.13 1100.87 3089.13 864ZM3116.63 1094 3096 1135.25 3075.38 1094Z"/><path d="M3063.5 1159.17C3063.5 1145.54 3074.54 1134.5 3088.17 1134.5L3372.83 1134.5C3386.46 1134.5 3397.5 1145.54 3397.5 1159.17L3397.5 1257.83C3397.5 1271.46 3386.46 1282.5 3372.83 1282.5L3088.17 1282.5C3074.54 1282.5 3063.5 1271.46 3063.5 1257.83Z" stroke="#50164A" stroke-width="6.875" stroke-miterlimit="8" fill="#F2CFEE" fill-rule="evenodd"/><text fill="#262626" font-family="Aptos,Aptos_MSFontService,sans-serif" font-weight="700" font-size="50" transform="matrix(1 0 0 1 3148.15 1194)">TimiGP</text><text fill="#262626" font-family="Aptos,Aptos_MSFontService,sans-serif" font-weight="700" font-size="50" transform="matrix(1 0 0 1 3134.97 1254)">analysis</text><path d="M4843.88 1135 4843.88 1212.03 4830.13 1212.03 4830.12 1135ZM4857.62 1205.15 4837 1246.4 4816.38 1205.15Z"/><path d="M4579.5 1267.33C4579.5 1251.96 4591.96 1239.5 4607.33 1239.5L5077.67 1239.5C5093.04 1239.5 5105.5 1251.96 5105.5 1267.33L5105.5 1378.67C5105.5 1394.04 5093.04 1406.5 5077.67 1406.5L4607.33 1406.5C4591.96 1406.5 4579.5 1394.04 4579.5 1378.67Z" stroke="#50164A" stroke-width="6.875" stroke-miterlimit="8" fill="#F2CFEE" fill-rule="evenodd"/><text fill="#262626" font-family="Aptos,Aptos_MSFontService,sans-serif" font-weight="700" font-size="50" transform="matrix(1 0 0 1 4737.97 1309)">Bayesian </text><text fill="#262626" font-family="Aptos,Aptos_MSFontService,sans-serif" font-weight="700" font-size="50" transform="matrix(1 0 0 1 4729.08 1369)">Modelling</text><path d="M5133 1406C5133 1449.63 5092.12 1485 5041.7 1485L4080.41 1485C4029.98 1485 3989.11 1520.37 3989.11 1564 3989.11 1520.37 3948.23 1485 3897.81 1485L2887.3 1485C2836.88 1485 2796 1449.63 2796 1406" stroke="#000000" stroke-width="13.75" stroke-miterlimit="8" fill="none" fill-rule="evenodd"/><path d="M3717.5 1594.17C3717.5 1578.89 3729.89 1566.5 3745.17 1566.5L4215.83 1566.5C4231.11 1566.5 4243.5 1578.89 4243.5 1594.17L4243.5 1704.83C4243.5 1720.11 4231.11 1732.5 4215.83 1732.5L3745.17 1732.5C3729.89 1732.5 3717.5 1720.11 3717.5 1704.83Z" stroke="#50164A" stroke-width="6.875" stroke-miterlimit="8" fill="#F2CFEE" fill-rule="evenodd"/><text fill="#262626" font-family="Aptos,Aptos_MSFontService,sans-serif" font-weight="700" font-size="50" transform="matrix(1 0 0 1 3807.35 1666)">Interactive app</text><path d="M3012.88 864 3012.88 1288.46 2999.13 1288.46 2999.12 864ZM3026.63 1281.59 3006 1322.84 2985.38 1281.59Z"/><path d="M2982.5 1345.17C2982.5 1334.31 2991.3 1325.5 3002.17 1325.5L3297.83 1325.5C3308.69 1325.5 3317.5 1334.31 3317.5 1345.17L3317.5 1423.83C3317.5 1434.7 3308.69 1443.5 3297.83 1443.5L3002.17 1443.5C2991.3 1443.5 2982.5 1434.7 2982.5 1423.83Z" stroke="#50164A" stroke-width="6.875" stroke-miterlimit="8" fill="#F2CFEE" fill-rule="evenodd"/><text fill="#262626" font-family="Aptos,Aptos_MSFontService,sans-serif" font-weight="700" font-size="50" transform="matrix(1 0 0 1 3042.41 1401)">GigaTIME</text></g></svg>